<svg xmlns="http://www.w3.org/2000/svg" width="232.241" height="54.781" viewBox="0 0 232.241 54.781">
  <g id="Grupo_1099" data-name="Grupo 1099" transform="translate(-833.668 -24.131)">
    <g id="Grupo_717" data-name="Grupo 717" transform="translate(833.668 24.131)">
      <g id="Grupo_715" data-name="Grupo 715" transform="translate(74.745 21.315)">
        <path id="Caminho_2225" data-name="Caminho 2225" d="M137.682,85.291a12.889,12.889,0,0,0-3.858.579,13.437,13.437,0,0,0-3.376,1.543,16.93,16.93,0,0,0-2.893,2.315,13.368,13.368,0,0,0-2.218,2.99,18.737,18.737,0,0,0-1.447,3.472,16.755,16.755,0,0,0-.482,3.761,11.338,11.338,0,0,0,.386,3.279,8.008,8.008,0,0,0,1.157,2.411,4.378,4.378,0,0,0,1.832,1.447,6.715,6.715,0,0,0,2.411.482,6.148,6.148,0,0,0,2.315-.386,8.624,8.624,0,0,0,2.218-1.254A9.131,9.131,0,0,0,135.657,104a28.218,28.218,0,0,0,1.736-2.508l-.772,5.69h3.665l2.7-21.025a9.5,9.5,0,0,0-2.7-.772C139.611,85.388,138.647,85.291,137.682,85.291Zm.772,8.1a17.461,17.461,0,0,1-1.736,5.787h0a23.625,23.625,0,0,1-1.736,2.8,7.292,7.292,0,0,1-2.025,1.832,3.674,3.674,0,0,1-2.122.675c-2.315,0-3.376-1.736-3.376-5.112a9.956,9.956,0,0,1,.386-2.893,10.406,10.406,0,0,1,.964-2.6,12.1,12.1,0,0,1,1.543-2.315,17.334,17.334,0,0,1,1.929-1.832A12.965,12.965,0,0,1,134.6,88.57a7.745,7.745,0,0,1,2.6-.386h.964c.289,0,.675.1.964.1Zm67.994-5.015H205.29a5.657,5.657,0,0,0-5.69,5.015l-1.736,13.888h-3.858l1.736-13.406a9.769,9.769,0,0,1,9.645-8.487h1.447ZM118.2,87.413a9.841,9.841,0,0,1,.675,6.076l-1.64,13.792-3.858-.1,1.64-13.7a7.4,7.4,0,0,0-.193-3.761,1.984,1.984,0,0,0-2.122-1.254,4.744,4.744,0,0,0-1.929.482,7.435,7.435,0,0,0-1.832,1.35,10.188,10.188,0,0,0-1.64,2.218,11.447,11.447,0,0,0-1.543,4.629L104.5,107.281h-3.858l1.64-13.792a9.079,9.079,0,0,0-.1-3.761c-.289-.868-.964-1.254-2.122-1.254a5.183,5.183,0,0,0-2.025.482A8.642,8.642,0,0,0,96.21,90.4a11.708,11.708,0,0,0-1.64,2.411h0a15.329,15.329,0,0,0-1.64,5.015l-1.157,9.452H87.916l2.8-21.7h3.665L93.7,90.692a11.648,11.648,0,0,1,3.665-4.051,6.866,6.866,0,0,1,4.147-1.35,3.8,3.8,0,0,1,3.376,1.543,6.88,6.88,0,0,1,1.061,4.34,11.629,11.629,0,0,1,3.761-4.437,7.612,7.612,0,0,1,4.436-1.447A4.163,4.163,0,0,1,118.2,87.413Zm-38-1.832h4.147l-2.7,21.7H77.5ZM188.027,87.7a7.707,7.707,0,0,0-2.6-1.736,9.541,9.541,0,0,0-3.376-.579,10.432,10.432,0,0,0-4.533,1.061,11.587,11.587,0,0,0-3.665,2.893,13.132,13.132,0,0,0-2.411,4.244,15.384,15.384,0,0,0-.868,5.112,12.008,12.008,0,0,0,.579,3.858,6.894,6.894,0,0,0,1.736,2.8,7.708,7.708,0,0,0,2.6,1.736,9.541,9.541,0,0,0,3.376.579,10.433,10.433,0,0,0,4.533-1.061,10.613,10.613,0,0,0,3.665-2.893,13.132,13.132,0,0,0,2.411-4.244,14.975,14.975,0,0,0,.868-5.112,11.012,11.012,0,0,0-.579-3.761A9.212,9.212,0,0,0,188.027,87.7ZM185.9,98.215a14.633,14.633,0,0,1-1.447,3.279,7.287,7.287,0,0,1-2.218,2.315,5.1,5.1,0,0,1-2.893.868,4.285,4.285,0,0,1-3.568-1.543,7.462,7.462,0,0,1-1.254-4.533,16.242,16.242,0,0,1,.482-3.858,14.633,14.633,0,0,1,1.447-3.279,6.109,6.109,0,0,1,2.218-2.218,5.192,5.192,0,0,1,2.99-.868,4.285,4.285,0,0,1,3.568,1.543,6.7,6.7,0,0,1,1.254,4.533A27.452,27.452,0,0,1,185.9,98.215ZM167.677,77.093l-3.761,30.188H160.25l3.761-30.188Zm55.553,8.391a13.192,13.192,0,0,0-2.8-.193,12.889,12.889,0,0,0-3.858.579,13.438,13.438,0,0,0-3.376,1.543,16.93,16.93,0,0,0-2.893,2.315,13.369,13.369,0,0,0-2.218,2.99,18.736,18.736,0,0,0-1.447,3.472,16.757,16.757,0,0,0-.482,3.761,11.339,11.339,0,0,0,.386,3.279,8.009,8.009,0,0,0,1.157,2.411,4.378,4.378,0,0,0,1.832,1.447,6.318,6.318,0,0,0,2.411.482,6.148,6.148,0,0,0,2.315-.386,8.624,8.624,0,0,0,2.218-1.254A9.132,9.132,0,0,0,218.407,104a28.228,28.228,0,0,0,1.736-2.508l-.772,5.69h3.665l2.7-21.025C225.062,85.966,224.1,85.677,223.229,85.484Zm-2.122,7.909a17.46,17.46,0,0,1-1.736,5.787h0a23.627,23.627,0,0,1-1.736,2.8,7.292,7.292,0,0,1-2.025,1.832,3.674,3.674,0,0,1-2.122.675c-2.315,0-3.376-1.736-3.376-5.112a9.956,9.956,0,0,1,.386-2.893,10.407,10.407,0,0,1,.964-2.6,12.1,12.1,0,0,1,1.543-2.315,17.331,17.331,0,0,1,1.929-1.832,12.964,12.964,0,0,1,2.315-1.157,7.746,7.746,0,0,1,2.6-.386h.964c.289,0,.675.1.964.1Zm-62.979-7.909a6.367,6.367,0,0,1,1.35.1l-.386,2.8c-.289,0-.675-.1-.964-.1h-.1a6.007,6.007,0,0,0-5.787,5.3l-1.64,13.6h-3.665L150.027,82.4a9.441,9.441,0,0,1,9.259-8.2h1.35l-.386,2.893h-1.061a5.533,5.533,0,0,0-5.5,4.919l-.579,4.822A9.753,9.753,0,0,1,158.129,85.484Z" transform="translate(-77.5 -74.2)" fill="#fff"/>
        <path id="Caminho_2226" data-name="Caminho 2226" d="M238.368,89.276l.772.868h-.772l-.675-.772h-.386v.772h-.675v-2.6h1.254a1.1,1.1,0,0,1,.772.289.876.876,0,0,1,.289.675.9.9,0,0,1-.579.772m0-.868c0-.193-.193-.289-.482-.289h-.579v.675h.579a.441.441,0,0,0,.482-.386m2.218.482a2.836,2.836,0,0,1-.868,2.122,2.776,2.776,0,0,1-2.025.868,2.627,2.627,0,0,1-2.025-.868,3.027,3.027,0,0,1,0-4.244,2.776,2.776,0,0,1,2.025-.868,2.627,2.627,0,0,1,2.025.868,2.836,2.836,0,0,1,.868,2.122m-.579,0a1.987,1.987,0,0,0-.675-1.64,2.315,2.315,0,1,0,0,3.279,2.517,2.517,0,0,0,.675-1.64" transform="translate(-83.091 -74.616)" fill="#fff"/>
      </g>
      <path id="Caminho_2227" data-name="Caminho 2227" d="M58.253,77.369C66.644,65.6,61.532,52.1,61.532,52.1L35.974,63.481c-9.645,3.954-16.2,10.995-17.65,20.736a30.906,30.906,0,0,0,1.736,15.238A30.615,30.615,0,0,1,4.629,81.13a25.524,25.524,0,0,1,11.091,2.218l.482.193.1-.482a19.526,19.526,0,0,1,.868-3.183l.1-.386-.386-.1A31.7,31.7,0,0,0,0,77.369C1.736,92.8,14.756,102.348,23.533,105.242l4.629,1.157-2.218-4.051A28.337,28.337,0,0,1,22.182,87.11a28.789,28.789,0,0,1,9.548,16.01l.868,3.665,1.929-.1c18.9,0,31.827-16.3,33.177-29.32A30.793,30.793,0,0,0,58.253,77.369Zm4.726,3.761c-3.665,11.959-13.309,20.254-26.715,21.8C39.157,90,49.477,81.323,62.979,81.13ZM58.928,57.694c1.157,8.68-1.929,18.132-10.9,23.533-7.523,4.533-10.513,7.523-14.081,15.142a28.975,28.975,0,0,0-10.8-13.7c1.736-6.173,5.594-11.766,14.37-15.335Z" transform="translate(0 -52.1)" fill="#78b537"/>
      <path id="Caminho_2228" data-name="Caminho 2228" d="M27,81.7" transform="translate(-0.96 -53.152)" fill="#78b537"/>
    </g>
  </g>
</svg>
